<?xml version="1.0" encoding="utf-8"?>
<!-- Generator: Adobe Illustrator 23.0.3, SVG Export Plug-In . SVG Version: 6.00 Build 0)  -->
<svg version="1.1" xmlns="http://www.w3.org/2000/svg" viewBox="0 0 699 3600">
<style type="text/css">
	#background {
		fill: #eee;
		filter: url(#drop-shadow);
	}
	#holes {
		fill: #ddd;
	}
</style>
<defs>
	<filter id="drop-shadow" x="0" y="0" width="100%" height="100%">
		<feOffset result="offOut" in="SourceGraphic" dx="2" dy="3" />
		<!-- <feColorMatrix result="matrixOut" in="offOut" type="matrix"
		values="0.2 0 0 0 0 0 0.2 0 0 0 0 0 0.2 0 0 0 0 0 1 0" /> -->
		<feColorMatrix
      type = "matrix"
      values="0     0     0     0     0
              0     0     0     0     0
              0     0     0     0     0
              0     0     0     1     0 "/>
		<feGaussianBlur result="blurOut" in="matrixOut" stdDeviation="18" />
		<feBlend in="SourceGraphic" in2="blurOut" mode="normal" />
	</filter>
</defs>
<path id="background" d="M0 0v3600h700V0H0z M430.3,979.7c-6.1,2.1-9.3,8.6-7.2,14.7c1.1,3.2,3.5,5.8,6.7,7
	c3.5,2,3.5,4.9,0,6.1c-3.3,1.9-5.8,4.9-6.9,8.5c-0.3,1.7,3,4.9,7.2,7.2c4.3,2.3,4.1,3.8-0.7,3c-4.5,0-8.7,2-11.3,5.6
	c-0.6,3,0.1,6.1,2,8.5c2,2.9,0.7,4.9-2.7,4.5c-3.6-0.3-10.4,4.3-12,5.9c-1.6,1.7,0,11.1,3.8,21c3.6,10,0.3,12.3-7.4,5.2
	c-7.8-7.1-23.4-8.8-27.3-8c-4.3,1.6-7,5.7-6.9,10.3c0,4.8-2.2,4.9-4.6,0.3l-2.6-4.5c-0.9-1.3-1.9-2.6-3-3.6
	c-8.5,0-16.5-0.6-26.2-1.3l-2.2,4.1c-2,3.9-3.9,3.3-3.9-1.9c-0.3-4.6-2.2-9-5.2-12.4c-1.4-1-7.7,2.6-13.7,8c-6.2,5.4-8,3.8-4.1-3.6
	c2.9-7.4,2.7-15.6-0.3-22.9c-1.7-2.9-7.7-3.6-13.2-1.6c-5.4,1.9-6.4,0-2-4.6c4.3-4.8,5.6-15.8,5.2-18.7c-0.4-3-4.5-5.4-9-5.4
	c-4.3,0-4.5-2.3,0-4.9c4.5-2.7,9-13.5,9.7-16.6c0.9-3-4.6-8.7-12-12.3c-7.2-3.5-6.4-6.1,2.5-5.5c8.8,0.4,23-9.5,26.5-12.9
	c3.3-3.5,4.9-8.5,3.9-13.3c-1.2-3.9,0.9-5.2,4.5-3c3.5,2.3,12.6,1,15,0c3.2-2.3,4.9-6.1,4.6-10c0-4.5,1.9-4.9,3.9-1
	c2.5,3.5,6.4,5.8,10.6,6.5c1.7,0,5.1-4.6,7.4-10c2.3-5.4,5.9-5.1,8,0.7c2.2,5.6,15,13.9,19,15.9c3.9,2,10.8-0.9,15.3-6.4
	c4.6-5.5,6.7-3.9,4.6,3.6c-2,7.5,4.8,23,7.4,27.2c3.6,4.8,9.5,7.2,15.5,6.7C434.9,975.5,435.7,977.1,430.3,979.7z M275.6,227.8
	c4.2-2.4,7.3-6.5,8.3-11.4c1.2-6.4,3-12.4,5.3-18.5l2.1-4.5c0.2-0.2-0.3-7.7-0.8-16.4l-0.3-1.4l14.1-3c7.6-1.7,14.4-5.5,15-8.3
	c0.6-3,5.2-4.7,10.3-3.8c4.1,1.1,8.5,0.9,12.4-0.8c2-1.5,9.7-5.9,10.6-11.7c0.9-5.9,3.2-5.6,5.2,0.5c2,5.9,5.8,11.4,8.6,12
	c5.2,1.5,10,3.5,14.8,5.8c3.2,1.8,6.4,3.8,9.2,5.9c6.8,3,14.7,2.6,21.2-1.1c6.8-4.8,8.5-2.6,3.8,4.8c-4.5,7.4-7.4,15.8-6.1,18.5
	c1.5,2.6,7.6,14.1,11.7,15s4.8,5.9,2,11.4c-3,5.5-3,16.5,0.9,18.6c4.1,2.3,3.6,4.2-1.1,4.2c-4.7,0-9.1,2.3-10,5
	c-0.8,5.6,0.2,11.2,2.4,16.4c2.6,5,0.6,8-4.4,6.8c-5.3-1.2-10.9,0.2-15.1,3.5c-3.2,3-11.4,14.2-9.5,20.1c1.8,5.9-1.2,6.4-6.8,0.9
	c-5.6-5.5-13.5-8.3-17.4-6.5c-4.1,2-18.3,7.3-20.9,13c-2.6,5.6-4.2,5.3-3.8-0.6c0.3-5.9-1.4-11.2-3.8-11.8
	c-4.8-1.5-9.5-3.5-14.1-5.8c-3-1.5-6.7-3.8-8.3-4.7c-4.1-1.5-8.6-1.1-12.4,0.9c-4.2,2.6-5.3,1.7-2.4-2.3c2.9-3.8,4.2-8.3,2.9-9.7
	c-2.9-2.9-6.7-4.7-10.8-5.2c-3.5,0.3-4.7-1.8-2.7-4.8c2-2.7,2.7-6.1,2.1-9.4c-2.7-5.2-6.7-9.5-11.4-12.9
	C271.6,234.2,271.3,230.1,275.6,227.8z M320.4,2868.5c1.3,4.5,5.3,7.7,10,7.9c4.9,0.4,4.8,2.4,0.1,4.7c-3.1,1.3-6.1,2.8-8.8,4.7
	l0,0.4l-0.6,8.8c-3.1,8.6-6.7,17.5-7.8,19.5c-1.2,2.1-4.8,7.5-5.8,8.9s2.3,7.7,7.2,14.5c5,6.9,3.3,8.5-4,3.9
	c-7.2-4.5-20.3-2.9-23.2-1.2c-3,1.6-4.2,7.5-2.5,13.2c1.6,5.7-0.6,6.5-5,1.8c-4.3-4.6-15.4-6.8-18.6-6.5c-3.5,0.3-7,0.3-10.5,0.2
	c-5.7-0.6-11.2-1.5-16.8-2.8c-3.1-1-9.1,4.2-13.3,11.6c-4.2,7.3-6.7,6.1-5.5-2.9c1.1-8.9-8-24-11.3-27.7c-3.3-3.7-8.2-5.6-13.1-5
	c-4.1,0.9-6.5-4.4-5.4-11.6c1.2-7.3-1.6-13.4-6.1-13.8c-4.8-0.4-5-2.2-0.8-4.4c3.7-2.3,6.3-5.9,7.3-10.2c0-1.7-4.4-5.5-9.7-8.2
	c-5.3-2.7-4.8-6.3,1.3-8.1c6-1.7,15-14.3,17.4-18.1c2.3-3.8,0-10.9-5.3-15.9c-5.1-5-3.6-6.8,3.7-4.2c7.4,2.5,23.7-3.4,28.2-5.6
	c5.1-3.4,8.1-9.2,7.9-15.3c-0.3-6.2,1.5-6.8,3.6-1.2c2.7,4.9,7.5,8.1,13,8.6c3.7-1.1,6.8-3.4,9-6.5c2.5-3.4,5.3-3.2,6.2,0.3
	c1.7,3.5,4.6,6.1,8.1,7.6c1.7,0.4,5.3-2.6,8-6.8c2.6-4.2,3.9-3.8,3.1,1c-0.3,4.5,1.5,8.9,4.9,11.7c3.1,0.8,6.4,0.2,9-1.6
	c3-1.8,4.9-0.3,4.4,3.2c-0.5,3.6,3.6,10.8,5.2,12.6c1.6,1.9,11.3,0.7,21.6-2.2c10.4-3.1,12.5,0.5,4.7,7.8
	C322.6,2848.7,319.7,2864.5,320.4,2868.5z M371.8,2341.8c-2.4,3.5-4.1,2.9-3.7-1.3c0.4-4.2-1.3-8.4-3.7-9.4c-5-1.1-10.1-0.8-15,0.9
	c-4.7,1.9-7.3-0.1-5.8-4.5c1.5-4.7,0.7-9.9-1.9-14c-2.5-3.1-11.9-11.4-17.4-10.2c-5.5,1.2-5.6-1.6-0.3-6.2
	c5.4-4.6,8.6-11.5,7.3-15.2c-1.4-3.9-5.1-17.1-10.1-19.9c-4.9-2.8-4.4-4.3,0.9-3.4c5.3,0.7,10.2-0.3,11-2.5
	c1.8-4.3,3.9-8.3,6.3-12.3c1.6-2.6,4-5.7,4.9-7.1c1.7-3.6,1.6-7.7,0.2-11.3c-2-4-1.1-4.9,2.2-2c3.2,2.9,7.2,4.5,8.5,3.4
	c2.8-2.4,4.8-5.6,5.5-9.3c0-3.2,2-4.1,4.6-2.1c2.3,2,5.3,2.9,8.3,2.7c4.9-2,9.1-5.3,12.5-9.2c2.7-4.2,6.4-4.1,8.1-0.1
	c1.8,4,5.3,7.1,9.6,8.4c5.6,1.6,11,3.7,16.3,6.3l3.9,2.3c0.1,0.1,7,0.3,14.8,0.6l1.3-0.2l1.6,13c0.9,7,3.8,13.4,6.3,14.2
	c2.7,0.8,3.8,5,2.6,9.6c-1.3,3.6-1.5,7.6-0.3,11.3c1.2,1.9,4.6,9.2,9.7,10.5c5.3,1.3,4.8,3.3-0.8,4.6c-5.5,1.3-10.7,4.3-11.5,6.8
	c-1.8,4.5-3.9,8.7-6.4,12.9c-1.9,2.7-3.9,5.4-6.1,7.9c-3.3,5.9-3.5,13.1-0.7,19.2c3.8,6.5,1.6,7.9-4.7,3c-6.3-4.7-13.6-8-16.2-7
	c-2.4,1.2-13.3,5.7-14.5,9.3c-1.1,3.6-5.7,3.9-10.4,0.9C384,2339.3,374,2338.4,371.8,2341.8z M533.5,3228
	c-5.5,1.3-10.7,4.3-11.5,6.8c-1.8,4.5-3.9,8.7-6.4,12.9c-1.9,2.7-3.9,5.4-6.1,7.9c-3.3,5.9-3.5,13-0.7,19.2c3.8,6.5,1.6,7.8-4.7,3
	c-6.3-4.7-13.6-7.9-16.2-6.9c-2.4,1.2-13.3,5.7-14.4,9.3c-1.1,3.6-5.7,3.9-10.4,0.9c-4.7-3.2-14.6-4.1-16.9-0.7
	c-2.4,3.5-4.1,2.9-3.7-1.3c0.4-4.2-1.3-8.4-3.7-9.4c-5-1.1-10.1-0.8-14.9,0.9c-4.7,1.9-7.3-0.1-5.8-4.5c1.5-4.7,0.7-9.8-1.9-13.9
	c-2.5-3.1-11.9-11.4-17.4-10.2c-5.5,1.2-5.6-1.6-0.3-6.2c5.4-4.6,8.6-11.5,7.3-15.2c-1.4-3.8-5.1-17.1-10.1-19.9
	c-4.8-2.8-4.4-4.2,0.8-3.4c5.3,0.7,10.2-0.3,10.9-2.5c1.8-4.2,3.9-8.3,6.3-12.2c1.6-2.6,3.9-5.7,4.9-7.1c1.7-3.6,1.6-7.7,0.2-11.3
	c-2-4-1.1-4.9,2.2-2c3.2,2.9,7.2,4.5,8.5,3.4c2.8-2.4,4.8-5.6,5.5-9.3c0-3.2,2-4.1,4.6-2.1c2.3,2,5.2,2.9,8.3,2.7
	c4.9-2,9.1-5.2,12.5-9.2c2.7-4.2,6.4-4.1,8.1-0.1c1.8,4,5.3,7.1,9.6,8.4c5.6,1.6,10.9,3.7,16.2,6.3l3.9,2.3c0.1,0.1,7,0.3,14.8,0.6
	l1.3-0.2l1.6,12.9c0.9,7,3.8,13.4,6.3,14.2c2.7,0.8,3.8,5,2.6,9.6c-1.3,3.6-1.5,7.6-0.3,11.3c1.2,1.9,4.5,9.2,9.7,10.5
	C539.5,3224.7,539.1,3226.7,533.5,3228z"/>
<g id="holes">
	<path d="M515.1,1045.8c1-5.8,13.7-15,28.1-20.5l59-22.4c14.5-5.5,13.6-11.6-1.6-13.5l-58-6.9c-15.2-1.9-30.5-12.2-34-22.9
		c-3.5-10.7-12.7-47.9-7.1-61.9l34.9-86.1c5.8-14.2,0.4-18.2-11.7-8.8l-69.1,52.8c-12.2,9.3-27.2,14.5-33.3,11.6l-8.5-2.9l-17.9-6.1
		c-11.1-1-29.8-10.1-41.5-20c-4.5-5.9-9.8-11.1-15.9-15.6c-10.7-8-11.6-4.8-2,7.2l3.6,4.6c9.5,12,14.3,22.9,10.7,23.9
		c-3.6,1.2-29.2-3.3-43.8-8.4l-38.2-12.9c-14.5-4.9-23.9,3.3-20.7,18.4l2.3,11.4c3,15,1.9,30.8-2.6,34.9
		c-12.6,10.1-26.8,18-42.1,23.3l-2.7,0.9c-14.9,3.9-18.1,9.7-7.1,12.9c9.9,2.4,16.1,12.4,13.7,22.3c-0.2,0.7-0.4,1.4-0.6,2.1
		c-4.1,10.3-18.1,47.9-29.9,57.9l-29.9,25c-12,9.8-9,19.5,6.2,21.6l29.5,3.9c15.3,2,32.7,12.6,38.6,23.4
		c5.9,10.7,27.2,47.4,27.2,62.8v11.4c0,15.3,9,19.1,19.8,8.5l0.7-0.7c11.1-10.7,27.2-16.6,35.7-13.5c8.5,3.3,41.1,17.1,51.8,28.2
		l25.9,27.3c10.6,11.1,22.3,8,26-6.8l6.8-26.2c5.3-17,15.9-31.8,30.2-42.2l31.1-27.9c9.8-12,27.8-23.6,39.9-25.9
		c12.2-2.5,40.4-12.7,25.5-16.1l-7.1-1.4C521.7,1069.1,513.9,1051.6,515.1,1045.8z M430.3,979.7c-6.1,2.1-9.3,8.6-7.2,14.7
		c1.1,3.2,3.5,5.8,6.7,7c3.5,2,3.5,4.9,0,6.1c-3.3,1.9-5.8,4.9-6.9,8.5c-0.3,1.7,3,4.9,7.2,7.2c4.3,2.3,4.1,3.8-0.7,3
		c-4.5,0-8.7,2-11.3,5.6c-0.6,3,0.1,6.1,2,8.5c2,2.9,0.7,4.9-2.7,4.5c-3.6-0.3-10.4,4.3-12,5.9c-1.6,1.7,0,11.1,3.8,21
		c3.6,10,0.3,12.3-7.4,5.2c-7.8-7.1-23.4-8.8-27.3-8c-4.3,1.6-7,5.7-6.9,10.3c0,4.8-2.2,4.9-4.6,0.3l-2.6-4.5
		c-0.9-1.3-1.9-2.6-3-3.6c-8.5,0-16.5-0.6-26.2-1.3l-2.2,4.1c-2,3.9-3.9,3.3-3.9-1.9c-0.3-4.6-2.2-9-5.2-12.4c-1.4-1-7.7,2.6-13.7,8
		c-6.2,5.4-8,3.8-4.1-3.6c2.9-7.4,2.7-15.6-0.3-22.9c-1.7-2.9-7.7-3.6-13.2-1.6c-5.4,1.9-6.4,0-2-4.6c4.3-4.8,5.6-15.8,5.2-18.7
		c-0.4-3-4.5-5.4-9-5.4c-4.3,0-4.5-2.3,0-4.9c4.5-2.7,9-13.5,9.7-16.6c0.9-3-4.6-8.7-12-12.3c-7.2-3.5-6.4-6.1,2.5-5.5
		c8.8,0.4,23-9.5,26.5-12.9c3.3-3.5,4.9-8.5,3.9-13.3c-1.2-3.9,0.9-5.2,4.5-3c3.5,2.3,12.6,1,15,0c3.2-2.3,4.9-6.1,4.6-10
		c0-4.5,1.9-4.9,3.9-1c2.5,3.5,6.4,5.8,10.6,6.5c1.7,0,5.1-4.6,7.4-10c2.3-5.4,5.9-5.1,8,0.7c2.2,5.6,15,13.9,19,15.9
		c3.9,2,10.8-0.9,15.3-6.4c4.6-5.5,6.7-3.9,4.6,3.6c-2,7.5,4.8,23,7.4,27.2c3.6,4.8,9.5,7.2,15.5,6.7
		C434.9,975.5,435.7,977.1,430.3,979.7z"/>
	<path d="M547.8,243c0.2-2-16.8-20.6-16.8-20.6c-15.3-17.1-15.6-30.3-0.5-29.2c15.2,0.9,27.3,0,26.8-1.7
		c-0.3-1.7-12.4-6.7-26.8-10.9c-14.2-4.2-24.4-23.5-16.7-34.1c7.6-11.5,4.3-27-7.2-34.6c-2.9-1.9-6.1-3.1-9.4-3.7
		c0,0-52-10.5-55.6-13.2c-3.5-2.7-24.1-63.5-30.1-62.7c-5.9,0.9-49.1,35.5-67.6,41.8l-17.1,5.8c-10.9,5.5-25.3,3.6-31.8-4.1
		c-6.7-7.7-12.3-13.8-13.5-7.3c-1.2,6.4-12.4,14.4-20.3,4.5l-2.3-11.5L256.5,50c-8.9-8.8-17.7,2.9-19.4,25.8
		c-2,21.5-5.6,42.7-10.8,63.6c-2.1,8.8-8.3,19.8-17.1,16.7c-3-1.4-5.6-3.8-7.4-6.7l-6.2-8.6c-9.5-16.8-18.2-29.8-19.2-29.5
		c-0.9,0.3,2.4,18.9,7.6,41.4c0,0,1.4,6.4-6.8,28.6l-3.8,10c-10.8,2.7-18,11.5-15.9,19.5l6.1,4.5c6.1,4.5,13.2,7.9,18,13.6
		c4.8,5.9,6.1,15.9,0,20.3c-9.8,7.3-9.1,23.5-1.5,33c7.7,9.7,19.7,14.5,31.2,18.9c4.2,1.7,3.3,7.4,1.8,11.5l-5.2,14.2
		c-5.6,15.9-1.7,29.2,8.8,29.7s35,17.6,32.3,30.6c-2.7,12.9,4.2,42.9,19.5,37.6c15.2-5.3,67.9-20,86.8-13.8l12.9-10.5
		c7.6-6.2,8-22.9,16.7-27.1c12.9-6.4,32.6,6.8,41.2,18.3c8.5,11.5,11.1,26.4,13.6,40.5c1.4,7.6,12.6,9.5,18.6,5
		c6.1-4.4,13.3-30,13.3-30c6.2-22.1,16.5-36.4,22.9-31.5c6.4,4.8,17-0.3,9.7-22c-5.9-18.5-8.8-37.9-8.5-57.3
		C496.9,274.2,547.4,246,547.8,243z M415.4,265.1c2.6,5,0.6,8-4.4,6.8c-5.3-1.2-10.9,0.2-15.2,3.5c-3.2,3-11.4,14.2-9.5,20.1
		c1.8,5.9-1.2,6.4-6.8,0.9s-13.5-8.3-17.4-6.5c-4.1,2-18.3,7.3-20.9,13c-2.6,5.6-4.2,5.3-3.8-0.6c0.3-5.9-1.4-11.2-3.8-11.8
		c-4.8-1.5-9.5-3.5-14.1-5.8c-3-1.5-6.7-3.8-8.3-4.7c-4.1-1.5-8.6-1.1-12.4,0.9c-4.2,2.6-5.3,1.7-2.4-2.3c2.9-3.8,4.2-8.3,2.9-9.7
		c-2.9-2.9-6.7-4.7-10.8-5.2c-3.5,0.3-4.7-1.8-2.7-4.8c2-2.7,2.7-6.1,2.1-9.4c-2.7-5.2-6.7-9.5-11.4-12.9c-4.8-2.6-5.2-6.7-0.9-8.9
		c4.2-2.4,7.3-6.5,8.3-11.4c1.2-6.4,3-12.4,5.3-18.5l2.1-4.5c0.2-0.2-0.3-7.7-0.8-16.4l-0.3-1.4l14.1-3c7.6-1.7,14.4-5.5,15-8.3
		c0.6-3,5.2-4.7,10.3-3.8c4.1,1.1,8.5,0.9,12.4-0.8c2-1.5,9.7-5.9,10.6-11.7c0.9-5.9,3.2-5.6,5.2,0.5c2,5.9,5.8,11.4,8.6,12
		c5.2,1.5,10,3.5,14.8,5.8c3.2,1.8,6.4,3.8,9.2,5.9c6.8,3,14.7,2.6,21.2-1.1c6.8-4.8,8.5-2.6,3.8,4.8c-4.5,7.4-7.4,15.8-6.1,18.5
		c1.5,2.6,7.6,14.1,11.7,15c4.1,0.9,4.8,5.9,2,11.4c-3,5.5-3,16.5,0.9,18.6c4.1,2.3,3.6,4.2-1.1,4.2s-9.1,2.3-10,5
		C412.2,254.4,413.1,260,415.4,265.1z"/>
	<path d="M358.7,2453.3c1.8,0.3,19.9-13.5,19.9-13.5c16.7-12.4,28.6-11.7,26.4,1.9c-2,13.6-2.2,24.6-0.6,24.3
		c1.5-0.1,7-10.7,12-23.3c5-12.5,23.2-20.1,32.1-12.3c9.8,7.8,24.1,6.1,31.8-3.7c1.9-2.4,3.3-5.2,4.1-8.2c0,0,13.6-46.1,16.4-49.1
		c2.7-2.9,59.2-16.7,59-22.2c-0.3-5.4-28.1-47.1-32.3-64.3l-3.8-15.9c-4-10.3-1.3-23.1,6.2-28.4c7.5-5.4,13.4-10,7.6-11.6
		c-5.6-1.6-12-12.4-2.5-18.7l10.6-1.1l10.6-1.3c8.6-7.4-1.2-16.2-21.7-19.6c-19.3-3.5-38.1-8.5-56.6-14.8
		c-7.8-2.6-17.2-9.1-13.7-16.8c1.5-2.6,3.9-4.8,6.6-6.2l8.3-4.9c15.9-7.3,28.4-14,28.2-15c-0.2-0.8-17.3,0.7-37.9,3.5
		c0,0-5.9,0.7-25.3-8.4l-8.7-4.2c-1.6-9.9-8.9-17.2-16.4-15.9l-4.6,5.1c-4.6,5.1-8.2,11.3-13.8,15.2c-5.7,3.9-14.8,4.2-18.3-1.6
		c-5.8-9.5-20.5-10.1-29.7-4c-9.4,6.2-14.7,16.6-19.6,26.6c-1.8,3.7-7,2.4-10.5,0.7l-12.4-5.8c-13.9-6.3-26.3-3.8-27.5,5.5
		c-1.2,9.4-18.7,30.2-30.2,26.7c-11.4-3.5-39,0.4-35.5,14.6c3.6,14.1,12.6,62.9,5.5,79.5l8.4,12.5c5,7.3,20,9.1,23.1,17.2
		c4.7,12.1-8.8,28.9-19.8,35.7c-11.1,6.7-24.7,7.9-37.6,9.1c-6.9,0.6-9.6,10.6-6,16.4c3.5,5.8,26,14.4,26,14.4
		c19.5,7.4,31.5,17.8,26.6,23.2c-4.9,5.4-1.1,15.3,19,10.5c17.2-3.9,34.9-4.9,52.4-3.1C334.6,2404.8,356,2452.6,358.7,2453.3z
		 M349.4,2332c-4.7,1.9-7.3-0.1-5.8-4.5c1.5-4.7,0.7-9.9-1.9-14c-2.5-3.1-11.9-11.4-17.4-10.2c-5.5,1.2-5.6-1.6-0.3-6.2
		c5.4-4.6,8.6-11.5,7.3-15.2c-1.4-3.8-5.1-17.1-10.1-19.9c-4.9-2.8-4.4-4.3,0.9-3.4c5.3,0.7,10.2-0.3,11-2.5
		c1.8-4.3,3.9-8.3,6.3-12.3c1.6-2.6,4-5.7,4.9-7.1c1.7-3.6,1.6-7.7,0.2-11.3c-2-4-1.1-4.9,2.2-2c3.2,2.9,7.2,4.5,8.5,3.4
		c2.8-2.4,4.8-5.6,5.5-9.3c0-3.2,2-4.1,4.6-2.1c2.3,2,5.3,2.9,8.3,2.7c4.9-2,9.1-5.3,12.5-9.2c2.7-4.2,6.4-4.1,8.1-0.1
		c1.8,4,5.3,7.1,9.6,8.4c5.6,1.6,11,3.7,16.3,6.3l3.9,2.3c0.1,0.1,7,0.3,14.8,0.6l1.3-0.2l1.6,13c0.9,7,3.8,13.4,6.3,14.2
		c2.7,0.8,3.8,5,2.6,9.6c-1.3,3.6-1.5,7.6-0.3,11.3c1.2,1.9,4.6,9.2,9.7,10.5c5.3,1.3,4.8,3.3-0.8,4.6c-5.5,1.3-10.7,4.3-11.5,6.8
		c-1.8,4.5-3.9,8.7-6.4,12.9c-1.9,2.7-3.9,5.4-6.1,7.9c-3.3,5.9-3.5,13.1-0.7,19.2c3.8,6.5,1.6,7.9-4.7,3c-6.3-4.7-13.6-8-16.2-7
		c-2.4,1.2-13.3,5.7-14.5,9.3c-1.1,3.6-5.7,3.9-10.4,0.9c-4.7-3.2-14.7-4.1-16.9-0.7c-2.4,3.5-4.1,2.9-3.7-1.3
		c0.4-4.2-1.3-8.4-3.7-9.4C359.3,2330,354.2,2330.3,349.4,2332z"/>
	<path d="M94.8,2774.9l9.4,47.6c1.1,5.6-2.5,11-8,12.1c-0.4,0.1-0.7,0.1-1.1,0.2l-40,4c-6.2,0.7-7.3,4.5-2.4,8.3L81,2871
		c4.8,3.9,3.8,6.8-2.5,6.1l-29.2-3.2c-2,0.5-3.3,2.5-3,4.6c0.2,1,0.8,1.9,1.8,2.5l40.8,15.3c4.3,1.2,6.8,5.7,5.5,10
		c-0.3,1.2-0.9,2.2-1.7,3.1L67.9,2943c-3.8,5-1.7,9.5,4.4,10.1l42.8,3.4c4.8,0.2,8.6,4.3,8.4,9.1c0,0.9-0.2,1.9-0.5,2.7l-0.9,2.8
		c-1.8,6-2.2,12.7-0.5,15.2c1.7,2.5,7.9,3.8,14.1,2.9l8-1.1c4.3-1,8.6,1.7,9.5,6c0.3,1.2,0.3,2.5-0.1,3.7l-5.8,35.5
		c-1.1,4.3,1.5,8.6,5.7,9.7c1.2,0.3,2.5,0.3,3.7,0.1l79.3-10.1c3.8-0.9,7.7,1.4,8.6,5.3c0.3,1.4,0.2,2.9-0.3,4.3l-23.3,89.4
		c-1.5,6.1-0.1,6.8,3.4,1.5l58.7-90.5c4.1-5.5,10.6-8.6,17.5-8.2l25.3,2.6c6.7,0.8,13,3.3,18.4,7.1c3.9,3.3,7.7,0.8,8.3-5.4l1-9.4
		c1.1-7.4,3.6-14.4,7.4-20.8l18.6-28.7c3.7-6.3,5.9-13.4,6.3-20.7l-0.1-0.5c0.1-6.2,5.3-11.3,11.5-11.2l23.9,0.3
		c6.1,0,8.7-4.3,5.4-9.6l-11.2-19c-7.6-12.7-3.5-29.1,9.2-36.7c2.7-1.6,5.6-2.7,8.7-3.3l10.3-2c5.3-1.1,8.8-6.3,7.7-11.7
		c-0.5-2.4-1.8-4.5-3.8-6l-40-29.9c-4.6-3.7-5.4-10.4-1.7-15c1.2-1.4,2.7-2.6,4.4-3.3l26.8-10.4c3.3-1.2,5-4.8,3.8-8.1
		c-0.9-2.5-3.2-4.1-5.8-4.2l-39.7-2c-7.4-0.7-14.4-3.2-20.7-7.1l-34.6-24c-5.4-4.1-8-11-7-17.7l4.9-24.1c1.2-6.1-1.9-8.1-6.9-4.4
		l-20,14.9c-6.1,4.2-13,7.3-20.2,9.1l-27.4,6.1c-6.3,1.2-12.5-2.4-14.5-8.4l-4.3-13.3c-1.9-6-6.5-6.7-10.3-1.9l-36.6,48
		c-2.1,3.6-6.8,4.8-10.3,2.6c-1.2-0.7-2.2-1.8-2.9-3l-24.5-36.7c-3.4-5.3-6-4.4-5.7,1.9l2.3,45.7c0.3,6.2-3.8,8.9-9.4,5.7l-6.2-3.6
		c-5.5-3.1-7.5-1.2-4.4,4.3c0,0,5.9,10.6,5.8,13.5c-0.1,6.4-41.4-24.4-41.4-24.4C96.8,2766.8,93.6,2768.8,94.8,2774.9z
		 M193.5,2827.9c7.4,2.5,23.7-3.4,28.2-5.6c5.1-3.4,8.1-9.2,7.9-15.3c-0.3-6.2,1.5-6.8,3.6-1.2c2.7,4.9,7.5,8.1,13,8.6
		c3.7-1.1,6.8-3.4,9-6.5c2.5-3.4,5.3-3.2,6.2,0.3c1.7,3.5,4.6,6.1,8.1,7.6c1.7,0.4,5.3-2.6,8-6.8c2.6-4.2,3.9-3.8,3.1,1
		c-0.3,4.5,1.5,8.9,4.9,11.7c3.1,0.8,6.4,0.2,9-1.6c3-1.8,4.9-0.3,4.4,3.2c-0.5,3.6,3.6,10.8,5.2,12.6c1.6,1.9,11.3,0.7,21.6-2.2
		c10.4-3.1,12.5,0.5,4.7,7.8c-7.8,7.4-10.6,23.2-10,27.1c1.3,4.5,5.3,7.7,10,7.9c4.9,0.4,4.8,2.4,0.1,4.7c-3.1,1.3-6.1,2.8-8.8,4.7
		l0,0.4l-0.6,8.8c-3.1,8.6-6.7,17.5-7.8,19.5c-1.2,2.1-4.8,7.5-5.8,8.9s2.3,7.7,7.2,14.5c5,6.9,3.3,8.5-4,3.9
		c-7.2-4.5-20.3-2.9-23.2-1.2c-3,1.6-4.2,7.5-2.5,13.2c1.6,5.7-0.6,6.5-5,1.8c-4.3-4.6-15.4-6.8-18.6-6.5c-3.5,0.3-7,0.3-10.5,0.2
		c-5.7-0.6-11.2-1.5-16.8-2.8c-3.1-1-9.1,4.2-13.3,11.6c-4.2,7.3-6.7,6.1-5.5-2.9c1.1-8.9-8-24-11.3-27.7c-3.3-3.7-8.2-5.6-13.1-5
		c-4.1,0.9-6.5-4.4-5.4-11.6c1.2-7.3-1.6-13.4-6.1-13.8c-4.8-0.4-5-2.2-0.8-4.4c3.7-2.3,6.3-5.9,7.3-10.2c0-1.7-4.4-5.5-9.7-8.2
		c-5.3-2.7-4.8-6.3,1.3-8.1c6-1.7,15-14.3,17.4-18.1c2.3-3.8,0-10.9-5.3-15.9C184.6,2827.1,186.1,2825.2,193.5,2827.9z"/>
	<path d="M433.2,3391.6c1.8,0.3,19.9-13.5,19.9-13.5c16.6-12.4,28.5-11.6,26.4,1.9c-2,13.6-2.2,24.6-0.6,24.3
		c1.5-0.1,7-10.7,12-23.3c5-12.5,23.1-20.1,32-12.3c9.8,7.7,24,6.1,31.8-3.7c1.9-2.4,3.3-5.2,4.1-8.2c0,0,13.6-46,16.3-49
		c2.7-2.9,59.1-16.6,58.9-22.1c-0.3-5.4-28-47.1-32.3-64.2l-3.8-15.9c-4-10.3-1.3-23.1,6.2-28.3c7.5-5.4,13.4-10,7.6-11.6
		c-5.6-1.6-12-12.3-2.5-18.7l10.6-1.1l10.6-1.3c8.6-7.3-1.2-16.2-21.7-19.5c-19.2-3.5-38-8.5-56.5-14.8c-7.7-2.6-17.2-9.1-13.6-16.8
		c1.5-2.6,3.9-4.7,6.6-6.2l8.3-4.9c15.9-7.3,28.3-14,28.2-15c-0.2-0.8-17.3,0.7-37.9,3.5c0,0-5.8,0.7-25.3-8.4l-8.7-4.2
		c-1.6-9.9-8.9-17.2-16.3-15.9l-4.6,5.1c-4.6,5.1-8.2,11.2-13.7,15.2c-5.7,3.9-14.8,4.2-18.3-1.6c-5.8-9.5-20.4-10.1-29.6-4
		c-9.4,6.2-14.7,16.6-19.6,26.6c-1.8,3.7-7,2.4-10.5,0.7l-12.4-5.8c-13.9-6.3-26.2-3.8-27.5,5.5c-1.2,9.4-18.6,30.1-30.2,26.6
		c-11.4-3.5-39,0.4-35.4,14.6c3.6,14.1,12.6,62.8,5.5,79.3l8.4,12.4c5,7.3,20,9.1,23.1,17.2c4.7,12.1-8.7,28.8-19.8,35.7
		c-11.1,6.7-24.6,7.9-37.5,9c-6.9,0.6-9.6,10.6-6,16.4c3.5,5.8,26,14.4,26,14.4c19.4,7.4,31.4,17.8,26.6,23.1s-1.1,15.3,19,10.5
		c17.1-3.8,34.8-4.9,52.3-3.1C409.2,3343.2,430.5,3390.9,433.2,3391.6z M423.9,3270.5c-4.7,1.9-7.3-0.1-5.8-4.5
		c1.5-4.7,0.7-9.8-1.9-13.9c-2.5-3.1-11.9-11.4-17.4-10.2c-5.5,1.2-5.6-1.6-0.3-6.2s8.6-11.5,7.3-15.2c-1.4-3.8-5.1-17.1-10.1-19.9
		c-4.8-2.8-4.4-4.2,0.8-3.4c5.3,0.7,10.2-0.3,10.9-2.5c1.8-4.2,3.9-8.3,6.3-12.2c1.6-2.6,3.9-5.7,4.9-7.1c1.7-3.6,1.6-7.7,0.2-11.3
		c-2-4-1.1-4.9,2.2-2c3.2,2.9,7.2,4.5,8.5,3.4c2.8-2.4,4.8-5.6,5.5-9.3c0-3.2,2-4.1,4.6-2.1c2.3,2,5.2,2.9,8.3,2.7
		c4.9-2,9.1-5.2,12.5-9.2c2.7-4.2,6.4-4.1,8.1-0.1c1.8,4,5.3,7.1,9.6,8.4c5.6,1.6,11,3.7,16.2,6.3l3.9,2.3c0.1,0.1,7,0.3,14.8,0.6
		l1.3-0.2l1.6,12.9c0.9,7,3.8,13.4,6.3,14.2c2.7,0.8,3.8,5,2.6,9.6c-1.3,3.6-1.5,7.6-0.3,11.3c1.2,1.9,4.5,9.2,9.7,10.5
		c5.3,1.3,4.8,3.3-0.8,4.6c-5.5,1.3-10.7,4.3-11.5,6.8c-1.8,4.5-3.9,8.7-6.4,12.9c-1.9,2.7-3.9,5.4-6.1,7.9
		c-3.3,5.9-3.5,13-0.7,19.2c3.8,6.5,1.6,7.8-4.7,3c-6.3-4.7-13.6-7.9-16.2-6.9c-2.4,1.2-13.3,5.7-14.4,9.3
		c-1.1,3.6-5.7,3.9-10.4,0.9c-4.7-3.2-14.6-4.1-16.9-0.7c-2.4,3.5-4.1,2.9-3.7-1.3c0.4-4.2-1.3-8.4-3.7-9.4
		C433.8,3268.5,428.7,3268.9,423.9,3270.5z"/>
</g>
</svg>
