<svg xmlns="http://www.w3.org/2000/svg" width="24" height="24" viewBox="0 0 24 24"><path d="M0 0h24v24H0z" fill="none"/><path d="M8.01 17V8.97h-3V7.03H13v1.94h-3V17z" /><path d="M18 19v2h-7v2.4L7 19z"/><path d="M6 5V3h7V.6L17 5z"/><path style="line-height:0;-inkscape-font-specification:'arial Bold'" d="M15.53 15.44c-.86 0-1.62-.76-1.62-1.93 0-1.16.76-1.93 1.62-1.93.85 0 1.62.77 1.62 1.93 0 1.17-.77 1.93-1.62 1.93zm0-5.54c-2.06 0-3.72 1.4-3.72 3.61 0 2.22 1.66 3.61 3.72 3.61 2.07 0 3.7-1.4 3.7-3.6 0-2.23-1.7-3.62-3.7-3.62z" /></svg>